<?xml version="1.0" encoding="UTF-8" standalone="no"?>
<!DOCTYPE svg PUBLIC "-//W3C//DTD SVG 1.1//EN" "http://www.w3.org/Graphics/SVG/1.1/DTD/svg11.dtd">
<svg width="100%" height="100%" viewBox="0 0 1024 419" version="1.1" xmlns="http://www.w3.org/2000/svg" xmlns:xlink="http://www.w3.org/1999/xlink" xml:space="preserve" xmlns:serif="http://www.serif.com/" style="fill-rule:evenodd;clip-rule:evenodd;">
    <g id="Auswahl" transform="matrix(0.999998,0,0,0.999998,0,0.000167344)">
        <path d="M485.43,17.02C489.92,15.25 501.67,15.91 507,16C509.13,16.04 511.65,15.95 513.26,17.6C515.32,19.71 515,24.23 515,27L515,169C514.99,171.53 515.34,175.36 513.4,177.26C511.29,179.32 506.77,179 504,179C486.65,179.03 484.07,180.66 484,170L483,151L483,27C483.01,22.73 482.41,20.33 485.43,17.02ZM917,71L917,25C917.05,18.04 917.57,16.14 925,16L941,16C943.13,16.04 945.65,15.95 947.26,17.6C949.32,19.71 949,24.23 949,27L949,170C948.98,172.35 949.19,175.61 947.4,177.4C945.48,179.32 941.54,178.99 939,179C935.33,179.01 921.03,179.94 919.02,177.4C917.6,175.6 918,169.41 918,167C906.13,178.29 894.22,182.18 878,182C868.11,181.88 857.5,179.04 849,173.98C817.13,155.04 809.31,109.65 830.78,80C846.52,58.27 879.61,48.8 904,60.99C909.2,63.59 912.9,66.99 917,71ZM99,70L110,61.9C119.07,56.89 129.85,55.89 140,56C149.4,56.11 159.94,59.22 168,64.02C202.06,84.26 206.07,133.79 181.54,162.99C166.5,180.88 136.23,187.12 115,177.65C108.52,174.76 104.91,170.9 100,166L100,214C99.9,220.84 99.18,222.86 92,223L76,223C73.87,222.96 71.35,223.05 69.74,221.4C67.68,219.29 68,214.77 68,212L68,67C68.02,64.66 67.79,61.51 69.6,59.74C71.71,57.68 76.23,58 79,58C83.17,57.99 95.64,56.8 97.98,60.31C99.34,62.35 99,67.49 99,70ZM286,166C280.19,170.03 276.72,173.53 270,176.68C257.05,182.74 241.23,182.34 228,177.29C205.87,168.86 197.31,138.29 213.18,121.04C225.71,107.43 249.03,108.45 266,106.83C271.9,106.27 283.51,106.81 284.5,99C285.15,93.91 280.21,87.74 276,85.47C267.47,80.7 252.52,80.9 244,85.47C239.35,88.04 235.46,92.36 230,92.89C223.75,93.5 209.99,91.93 211.57,83C212.39,78.41 216.99,72.62 220.29,69.44C233.85,56.35 251.46,55.97 269,56C285.23,56.03 303.81,61.42 311.62,77C314.89,83.51 315.99,94.7 316,102L316,160C316,175.6 317.5,178.85 307,179L293,179C284.39,178.84 284.31,172.99 286,166ZM770,166L758,173.69C743.1,181.87 727.02,183.27 711,177.29C688.65,168.95 678.18,138.38 695.46,120.3C707.44,107.77 732.52,107.22 749,106.09C754.99,105.68 767.42,106.78 767.67,98C767.83,92.55 762.61,86.82 758,84.57C749.46,80.38 734.36,81.38 726,85.67C721.54,87.95 718.08,91.94 713,92.78C707.52,93.68 692.65,91.72 693.49,83.98C693.94,79.91 698.34,73.94 701.09,71.01C711.03,60.48 726.84,56.07 741,56L752,56C770.92,56.03 791.12,63.19 797.23,83C798.76,87.97 798.99,91.88 799,97L799,111L800,127L800,159C800,173.62 802.15,178.92 790,179L778,179C771.28,178.9 768.52,177.42 769.2,170L770,166ZM389,138L412.32,76C415.83,66.51 416.45,58.16 428,58L442,58C444.7,58.01 449.35,57.56 450.89,60.31C452.36,62.96 449.92,67.48 448.85,70L438.42,95L406.28,173C401.04,185.2 396.18,200.21 386.83,209.91C376.65,220.48 366.51,221.66 353,223.28C349.55,223.7 342.3,225.1 339.6,222.4C337.21,220.02 337.94,208.64 338,205C338.22,193.55 344.11,198.71 355,195.96C362.5,194.06 371.09,185.1 371.1,177C371.1,174.06 368.5,168.79 367.23,166L359.3,148L332.86,88L324.58,69C323.56,66.58 321.56,62.87 323.06,60.31C324.69,57.57 329.25,58.01 332,58L345,58C347.78,58 351.42,57.79 353.89,59.17C357.95,61.44 362.32,74.32 364.2,79L389,138ZM557,174C548.67,170.05 542.2,158.37 538.82,150C526.55,119.56 537.31,83.95 567,68.32C591.56,55.39 626.8,57.55 648,76.18C670.38,95.86 677.74,126 664.24,153C660.69,160.1 656.5,166.3 650.04,171L650.04,157L651,145L649.56,126L647.8,118.02C646.73,110.95 654.87,112.8 656.53,105C658.18,97.2 648.61,92.3 642,93.21C638.65,93.68 636.55,95.28 634,95.12C631.44,94.96 626,91.46 623,90.26C617.85,88.2 611.54,87.07 606,87C597.63,86.91 592.15,86.67 584,89.36L572,94.8C568.46,95.81 566.4,93.89 563,93.35C555.29,92.13 547.07,98.39 548.47,105C549.99,112.17 557.84,112.04 558.53,116.22L556,136L557,174ZM125,84.3C99.9,89.21 91.39,122.75 105.79,141.96C112.6,151.05 125.98,155.29 137,153.7C164.92,149.67 173.87,112.64 155.68,93.17C147.18,84.08 136.65,83.14 125,84.3ZM878,84.3C840.18,91.7 843.78,152.38 884,153.96C894.19,154.36 906.12,150.06 912.61,141.99C920.85,131.73 920.92,108.62 913.36,98C904.61,85.69 892.23,82.88 878,84.3ZM578,99.53C582.23,99.43 586.44,100.08 589.96,102.65C603.12,112.26 595.34,132.14 580,133.37C569.3,134.23 561.33,125.54 562.1,115C562.78,105.66 569.36,100.9 578,99.53ZM619,100.65C625.38,99.33 631.8,99.67 636.81,104.34C645.74,112.65 642.97,128.57 630,132.78C608.9,139.62 597.53,109.66 619,100.65ZM576,103.39C557.25,109.44 564.82,134.23 583,129.44C591.72,127.15 596.52,115.48 590.57,108.1C586.67,103.28 581.74,102.63 576,103.39ZM622,103.39C602.67,109.62 611.24,134.42 629,129.57C638.18,127.06 641.57,115.28 635.58,108.1C631.81,103.58 627.54,102.69 622,103.39ZM584,119C583.54,120.46 583.54,121.3 582.41,122.57C574.82,131.08 562.22,115.55 574.04,110.74C575.63,110.09 577.32,110.1 579,110C578.85,115.13 579.96,115.94 584,119ZM628,119C627.55,120.47 627.51,121.41 626.41,122.69C619.61,130.56 608.06,116.5 618.06,111.02C619.72,110.11 621.2,110.15 623,110C623.67,114.78 624.34,115.86 628,119ZM285,123L261,126.27C257.13,126.84 250.55,127.86 247,129.1C234.01,133.62 232.93,145.99 241.05,152.58C251.96,161.43 276.12,155.54 282.08,143C285.04,136.77 285,129.73 285,123ZM768,123L746,125.42C740.84,126.15 734.96,126.91 730,128.44C713.92,133.39 716.77,147.45 723.11,152.35C732.32,159.48 757.6,157.07 765.32,142C768.39,136 768,129.51 768,123ZM595,145C580.22,142.55 594.24,127.52 601,127.06C607.53,126.62 608.14,129.29 611.43,132.21C612.62,133.26 614.2,134.11 615.14,135.41C618.71,140.38 614.8,143.95 610,145C609.97,148.02 610.15,151.28 608.26,153.85C605.06,158.24 598.76,157.67 596.17,152.94C594.88,150.58 595.03,147.62 595,145ZM614,138L591,138C591.49,139.21 591.54,140.1 592.72,141.01C594.35,142.26 597.99,142 600,142C605.65,142.01 610.91,143.48 614,138ZM598.16,145.16C598.02,146.35 597.97,148.69 598.16,149.94C600.99,159.72 612.24,147.79 603.85,145.16C602.59,144.94 599.43,145.01 598.16,145.16ZM287,275C295.82,280.02 301.86,281.91 307.9,291C320.24,309.57 313.9,337.81 295,349.53C275.78,361.46 249.81,359 228,359L198,359C195.23,358.99 191.56,359.29 189.31,357.4C186.62,355.13 187.01,351.18 187,348L187,210C187.02,207.65 186.81,204.39 188.6,202.6C190.52,200.68 194.46,201.01 197,201L245,201C258.82,201 273.74,201.07 286,208.48C309.9,222.93 312.94,261.07 287,275ZM570,254L570,210C570.05,203.04 570.57,201.14 578,201L594,201C596.14,201.04 598.77,200.96 600.4,202.6C602.32,204.52 601.99,208.46 602,211L602,320L603,335C603.01,339.59 604.3,354.26 600.57,356.83C598.52,358.24 594.45,358 592,358L579,358C570.58,357.94 569.08,355.22 571,347C566.9,349.9 563.47,353.28 559,355.68C548.07,361.54 538.89,361.14 527,361C517.58,360.89 509.2,358.19 501,353.69C493.05,349.33 487.51,344.33 482.16,337C466.76,315.9 468.06,281.19 484.47,261C500.48,241.29 532.59,232.43 556,243.32C562.26,246.23 565.2,249.24 570,254ZM716,254L716,210C716.05,203.04 716.57,201.14 724,201L740,201C742.34,201.04 745.42,200.91 747.18,202.74C749.29,204.94 749,210.11 749,213L749,349C748.98,351.53 749.18,354.53 747.4,356.57C744.96,359.38 740.38,358.99 737,359C732.74,359.01 720.51,360.19 718.02,356.57C716.65,354.58 717,349.47 717,347C702.84,360.47 691.39,361.21 673,361C666.35,360.92 660.18,359.35 654,356.93C648.04,354.6 641.61,350.37 637,345.96C630.49,339.74 625.84,333.38 622.45,325C620.1,319.18 619.58,315.1 618.85,309C615.43,280.43 629.26,251.16 658,242.03C663.49,240.28 669.23,239.07 675,239C692.45,238.8 703.1,241.7 716,254ZM220,265L237,265L247,264.09C253.43,263.64 258.14,263.74 263.98,260.01C273.42,253.97 275.04,237.3 264.98,231C261.11,228.58 256.46,228.06 252,228L220,228L220,265ZM418,346C410.82,352.53 403.36,356.93 394,359.57C387.17,361.5 380.03,361.08 373,361C358.14,360.82 344.45,354.17 336.88,341C327.85,325.31 330,304.59 330,287L330,257C330,253.59 329.39,246.94 331.6,244.31C333.87,241.62 337.82,242.01 341,242C344.8,241.99 358.1,241.34 360.7,243.02C364.41,245.42 363.41,250.36 363.49,254L363.49,295.13C364.08,307.09 362.79,322.32 374.04,330.15C385.99,338.46 417.7,330.17 418,306L418,251C418.13,241.87 420.82,242.01 429,242C433.36,241.99 447.6,240.75 449.98,244.31C451.21,246.16 451,249.81 451,252L451,351C450.96,353.14 451.04,355.77 449.4,357.4C447.48,359.32 443.54,358.99 441,359C436.25,359.01 422.7,360.28 419.74,356.69C417.6,354.09 418,349.22 418,346ZM828,319L849.19,259C854.65,244.65 853.56,242.13 863,242L879,242C881.75,242.01 886.31,241.57 887.94,244.31C889.5,246.95 887.23,251.42 886.2,254L876.2,279L847.2,352C842.12,364.71 835.53,383.36 825.91,392.91C815.56,403.18 802.07,406.06 788,406C785.3,405.99 780.81,406.17 778.74,404.18C776.19,401.72 776.94,390.71 777,387C777.22,375.48 783.49,380.68 793,378.07C801.13,375.85 810.25,366.73 810.46,358C810.56,354.04 802.47,337.72 800.42,333L773.42,271L765.15,252C764.22,249.75 762.34,245.88 764.04,243.6C765.5,241.63 769.78,242 772,242L787,242C789.37,242 792.72,241.8 794.79,243.02C798.14,245 802.32,256.95 803.99,261L828,319ZM533,266.29C525.41,267.55 519.7,269.3 514.18,275.09C506.44,283.22 504.88,292.32 505,303C505.18,318.26 514.98,329.87 530,332.74C533.08,333.33 535.85,333.83 539,333.54C547.09,332.78 553.64,331.05 559.99,325.67C573.87,313.91 573.45,287.64 560.91,275.09C553.65,267.84 542.99,265.35 533,266.29ZM681,266.29C670.28,268.07 662.15,272.17 656.53,282C644.39,303.24 655.57,332.69 682,333C691.7,333.11 699.22,332.38 706.96,325.67C720.7,313.77 720.45,287.77 707.82,275.18C701.16,268.54 690.22,265.5 681,266.29ZM220,331C232.97,331 259.2,332.9 269.99,326.96C281.58,320.57 282.65,301.12 271,294.23C266.86,291.78 260.75,291.06 256,291L220,291L220,331Z" style="fill:rgb(41,152,144);fill-rule:nonzero;stroke:black;stroke-opacity:0;stroke-width:1px;"/>
    </g>
    <g id="Auswahl1" serif:id="Auswahl" transform="matrix(0.999998,0,0,0.999998,0,0.000167344)">
        <g id="Ebene1">
            <path id="Auswahl2" serif:id="Auswahl" d="M287,275C295.82,280.02 301.86,281.91 307.9,291C320.24,309.57 313.9,337.81 295,349.53C275.78,361.46 249.81,359 228,359L198,359C195.23,358.99 191.56,359.29 189.31,357.4C186.62,355.13 187.01,351.18 187,348L187,210C187.02,207.65 186.81,204.39 188.6,202.6C190.52,200.68 194.46,201.01 197,201L245,201C258.82,201 273.74,201.07 286,208.48C309.9,222.93 312.94,261.07 287,275ZM570,254L570,210C570.05,203.04 570.57,201.14 578,201L594,201C596.14,201.04 598.77,200.96 600.4,202.6C602.32,204.52 601.99,208.46 602,211L602,320L603,335C603.01,339.59 604.3,354.26 600.57,356.83C598.52,358.24 594.45,358 592,358L579,358C570.58,357.94 569.08,355.22 571,347C566.9,349.9 563.47,353.28 559,355.68C548.07,361.54 538.89,361.14 527,361C517.58,360.89 509.2,358.19 501,353.69C493.05,349.33 487.51,344.33 482.16,337C466.76,315.9 468.06,281.19 484.47,261C500.48,241.29 532.59,232.43 556,243.32C562.26,246.23 565.2,249.24 570,254ZM716,254L716,210C716.05,203.04 716.57,201.14 724,201L740,201C742.34,201.04 745.42,200.91 747.18,202.74C749.29,204.94 749,210.11 749,213L749,349C748.98,351.53 749.18,354.53 747.4,356.57C744.96,359.38 740.38,358.99 737,359C732.74,359.01 720.51,360.19 718.02,356.57C716.65,354.58 717,349.47 717,347C702.84,360.47 691.39,361.21 673,361C666.35,360.92 660.18,359.35 654,356.93C648.04,354.6 641.61,350.37 637,345.96C630.49,339.74 625.84,333.38 622.45,325C620.1,319.18 619.58,315.1 618.85,309C615.43,280.43 629.26,251.16 658,242.03C663.49,240.28 669.23,239.07 675,239C692.45,238.8 703.1,241.7 716,254ZM220,265L237,265L247,264.09C253.43,263.64 258.14,263.74 263.98,260.01C273.42,253.97 275.04,237.3 264.98,231C261.11,228.58 256.46,228.06 252,228L220,228L220,265ZM418,346C410.82,352.53 403.36,356.93 394,359.57C387.17,361.5 380.03,361.08 373,361C358.14,360.82 344.45,354.17 336.88,341C327.85,325.31 330,304.59 330,287L330,257C330,253.59 329.39,246.94 331.6,244.31C333.87,241.62 337.82,242.01 341,242C344.8,241.99 358.1,241.34 360.7,243.02C364.41,245.42 363.41,250.36 363.49,254L363.49,295.13C364.08,307.09 362.79,322.32 374.04,330.15C385.99,338.46 417.7,330.17 418,306L418,251C418.13,241.87 420.82,242.01 429,242C433.36,241.99 447.6,240.75 449.98,244.31C451.21,246.16 451,249.81 451,252L451,351C450.96,353.14 451.04,355.77 449.4,357.4C447.48,359.32 443.54,358.99 441,359C436.25,359.01 422.7,360.28 419.74,356.69C417.6,354.09 418,349.22 418,346ZM828,319L849.19,259C854.65,244.65 853.56,242.13 863,242L879,242C881.75,242.01 886.31,241.57 887.94,244.31C889.5,246.95 887.23,251.42 886.2,254L876.2,279L847.2,352C842.12,364.71 835.53,383.36 825.91,392.91C815.56,403.18 802.07,406.06 788,406C785.3,405.99 780.81,406.17 778.74,404.18C776.19,401.72 776.94,390.71 777,387C777.22,375.48 783.49,380.68 793,378.07C801.13,375.85 810.25,366.73 810.46,358C810.56,354.04 802.47,337.72 800.42,333L773.42,271L765.15,252C764.22,249.75 762.34,245.88 764.04,243.6C765.5,241.63 769.78,242 772,242L787,242C789.37,242 792.72,241.8 794.79,243.02C798.14,245 802.32,256.95 803.99,261L828,319ZM533,266.29C525.41,267.55 519.7,269.3 514.18,275.09C506.44,283.22 504.88,292.32 505,303C505.18,318.26 514.98,329.87 530,332.74C533.08,333.33 535.85,333.83 539,333.54C547.09,332.78 553.64,331.05 559.99,325.67C573.87,313.91 573.45,287.64 560.91,275.09C553.65,267.84 542.99,265.35 533,266.29ZM681,266.29C670.28,268.07 662.15,272.17 656.53,282C644.39,303.24 655.57,332.69 682,333C691.7,333.11 699.22,332.38 706.96,325.67C720.7,313.77 720.45,287.77 707.82,275.18C701.16,268.54 690.22,265.5 681,266.29ZM220,331C232.97,331 259.2,332.9 269.99,326.96C281.58,320.57 282.65,301.12 271,294.23C266.86,291.78 260.75,291.06 256,291L220,291L220,331Z" style="fill:rgb(36,78,77);fill-rule:nonzero;stroke:black;stroke-opacity:0;stroke-width:1px;"/>
        </g>
    </g>
</svg>
